<svg viewBox="0 0 300 300"
  xmlns="http://www.w3.org/2000/svg">
  <path d="m136.125893 117.288073c14.41013-4.850562 27.83316-2.109766 39.480173 7.796632 10.335962 8.792594 14.330094 20.428621 14.288498 33.809481-.091795 25.476855-.015572 50.965113-.049872 76.441968-.003811 2.805419-.034301 5.648851-.457344 8.401051-3.376719 21.854139-21.133078 36.299386-43.127486 35.204588-20.210769-1.003564-37.307792-18.132586-37.799436-38.393946-.346818-14.513672-.060979-29.057755-.301084-43.586633 0-12.597776-.06479-25.191751.034301-37.789527.0343-3.656928.16007-7.401288.903253-10.963182 3.18997-15.36138 12.272049-25.963431 27.028997-30.920432zm69.082871-95.288073v20.8201628h-42.6892v27.2482979s2.61448.5740085 3.574902.8363038c23.797103 6.5155667 41.073252 15.8669636 55.262332 37.0824705 8.594246 12.852468 11.643202 31.380398 11.643202 46.760785v15.304359h-20.889162c0-5.538611.099091-10.750305-.038112-15.961998-.099091-3.896415-.167692-7.857454-.842274-11.689246-5.328051-30.262793-30.775402-49.8170956-57.026916-51.5315184-29.311903-1.9120945-57.1907972 18.1858064-64.1500399 46.8520184-1.6657464 6.843753-1.7799637 13.736569-1.7780383 20.63947l.0023262 1.88283c.0030489 1.883022.0050308 3.76653-.0231721 5.649734-.0228671 1.364696 0 2.72559 0 4.052272h-20.5918884c-5.5529117-51.542923 24.3078039-93.7420516 70.1221835-99.8660762v-27.3889489h-42.6205979v-20.6909159z" fill="black" fill-rule="evenodd"/>

</svg>
